PathFileType	4	(X/Y/Z)	C:\Users\dbl\Desktop\20210112\20210112\bx_n_5_502.trc
DataRate	CameraRate	NumFrames	NumMarkers	Units	OrigDataRate	OrigDataStartFrame	OrigNumFrames
50.00	50.00	       4	43	mm	50.00	123	       489
Frame#	Time	Top.Head			R.Acromium			L.Acromium			Sternum			R.ASIS			L.ASIS			V.Sacral			R.Thigh.Upper			R.Thigh.Front			R.Thigh.Rear			R.Knee.Lat			R.Knee.Med			R.Shank.Upper			R.Shank.Front			R.Shank.Rear			R.Ankle.Lat			R.Midfoot.Lat			R.Toe.Lat			R.Toe.Tip			R.Toe.Med			R.Ankle.Med			R.Midfoot.Sup			R.Heel			L.Thigh.Upper			L.Thigh.Front			L.Thigh.Rear			L.Knee.Lat			L.Knee.Med			L.Shank.Upper			L.Shank.Front			L.Shank.Rear			L.Ankle.Lat			L.Midfoot.Lat			L.Toe.Lat			L.Toe.Tip			L.Toe.Med			L.Ankle.Med			L.Midfoot.Sup			L.Heel			origin1 front left			origin2 front right			origin 3 back right			origin 4 back leftt			
		X1	Y1	Z1	X2	Y2	Z2	X3	Y3	Z3	X4	Y4	Z4	X5	Y5	Z5	X6	Y6	Z6	X7	Y7	Z7	X8	Y8	Z8	X9	Y9	Z9	X10	Y10	Z10	X11	Y11	Z11	X12	Y12	Z12	X13	Y13	Z13	X14	Y14	Z14	X15	Y15	Z15	X16	Y16	Z16	X17	Y17	Z17	X18	Y18	Z18	X19	Y19	Z19	X20	Y20	Z20	X21	Y21	Z21	X22	Y22	Z22	X23	Y23	Z23	X24	Y24	Z24	X25	Y25	Z25	X26	Y26	Z26	X27	Y27	Z27	X28	Y28	Z28	X29	Y29	Z29	X30	Y30	Z30	X31	Y31	Z31	X32	Y32	Z32	X33	Y33	Z33	X34	Y34	Z34	X35	Y35	Z35	X36	Y36	Z36	X37	Y37	Z37	X38	Y38	Z38	X39	Y39	Z39	X40	Y40	Z40	X41	Y41	Z41	X42	Y42	Z42	X43	Y43	Z43	

123	2.440	-134.13129	141.59201	1357.40137	-335.62750	-37.92506	1169.75476	-355.57019	284.14670	1164.17358	-480.61600	106.52243	997.76593	-750.04614	2.45885	987.98999	-744.81696	245.81166	1008.68817	-913.79517	103.50198	1103.20068	-824.89423	-65.16109	865.70544	-736.57538	6.43551	809.40198	-818.32727	-55.94771	751.20343	-802.74377	-29.37680	613.26666	-784.96149	80.30910	570.29962	-799.08856	-27.99664	565.42224	-741.59186	23.17939	528.29462	-821.95050	-45.22470	479.48938	-761.02069	-24.49152	206.82149	-646.28424	-66.10756	162.94411	-604.44055	-71.60464	157.49216	-548.85913	-21.37918	161.87445	-600.87030	30.72156	165.11555	-727.96625	66.65333	219.55565	-675.39056	51.92601	161.54315	-794.51556	33.14819	174.30504	-848.30493	297.83850	867.03979	-740.99603	229.17805	791.84869	-829.07123	288.77734	730.68542	-836.49127	262.99567	628.68085	-791.29272	151.79871	572.02887	-823.41217	257.04843	565.17297	-762.60120	212.97902	537.91199	-844.82654	269.21130	486.24283	-772.19733	232.93559	202.98964	-658.98462	297.67084	157.61948	-622.64227	305.11255	158.76135	-557.88580	252.98720	163.11497	-594.24725	217.08618	172.89488	-721.75500	159.02223	224.13858	-677.29370	175.25545	163.51521	-799.29877	184.13118	182.95627	-527.89630	304.14386	146.49309	-517.88281	-72.95910	143.24312	-875.83020	-78.62449	141.18878	-882.58649	296.17868	144.81392	
124	2.460	-136.34454	141.20995	1359.37402	-336.95441	-37.82467	1169.85132	-356.31424	284.06461	1164.83496	-481.27655	106.69876	999.46991	-751.06738	2.45097	987.85999	-745.96625	245.97420	1008.56268	-915.08246	103.64904	1102.84338	-825.65088	-64.81731	865.74255	-737.29382	6.68557	809.43195	-818.93597	-55.72159	751.18689	-803.06616	-29.10835	613.19293	-785.32599	80.74319	570.26691	-799.36987	-27.78222	565.51886	-741.96741	23.35501	528.30310	-822.14111	-44.99614	479.37997	-760.89288	-24.41398	206.90797	-646.18481	-66.01147	163.06502	-604.38513	-71.51977	157.53479	-548.76685	-21.30763	161.88284	-600.83832	30.76530	165.11995	-727.86029	66.72379	219.44528	-675.36823	51.95180	161.46985	-794.44275	33.27468	174.35165	-849.40619	297.87799	866.92828	-742.01404	229.41206	791.89490	-830.11157	288.91989	730.67047	-837.38843	262.99084	628.60016	-791.87231	151.92659	572.18951	-824.12732	257.09381	565.27069	-763.26678	213.04547	538.08734	-845.46124	269.24875	486.24893	-772.10431	232.91901	203.08261	-658.95789	297.68811	157.62003	-622.58240	305.12820	158.68539	-557.86353	253.07556	163.12341	-594.27191	217.13951	172.88483	-721.79449	159.02094	224.26839	-677.26727	175.37624	163.62463	-799.25250	184.19754	183.02026	-527.95337	304.14960	146.46480	-517.85132	-72.94936	143.27586	-875.84546	-78.60867	141.18530	-882.58722	296.18024	144.81685	
125	2.480	-138.54407	140.90024	1361.36377	-338.32156	-37.71776	1170.08936	-357.20590	283.98981	1165.61511	-481.96585	106.87780	1001.36316	-752.08459	2.39605	987.80988	-747.02356	246.09146	1008.51270	-916.30798	103.79328	1102.53308	-826.40906	-64.42696	865.84698	-738.02039	7.01687	809.51697	-819.50623	-55.44452	751.20941	-803.39746	-28.84410	613.17218	-785.65479	81.19946	570.30902	-799.71002	-27.55124	565.62762	-742.35254	23.55052	528.31805	-822.31390	-44.73991	479.25482	-760.73596	-24.26942	206.96901	-646.09009	-65.90859	163.20883	-604.33801	-71.42542	157.57033	-548.67731	-21.25676	161.91037	-600.79236	30.78169	165.11790	-727.72070	66.79317	219.27956	-675.34619	51.97288	161.39604	-794.34863	33.42141	174.39601	-850.42493	297.91171	866.86725	-742.94580	229.61896	791.92975	-831.08728	289.03653	730.69025	-838.21753	263.00101	628.54755	-792.40033	151.95909	572.40106	-824.78625	257.06512	565.35052	-763.87317	213.12598	538.26178	-846.00952	269.27054	486.25125	-772.00488	232.85880	203.20221	-658.94019	297.69482	157.62909	-622.54779	305.13412	158.61855	-557.78754	253.14107	163.14249	-594.26196	217.17960	172.90256	-721.82861	159.01128	224.42239	-677.26526	175.45851	163.72473	-799.17017	184.26500	183.13750	-528.00702	304.17429	146.46487	-517.81091	-72.93056	143.31325	-875.86121	-78.60141	141.19257	-882.58978	296.16504	144.80327	
126	2.500	-140.69678	140.70349	1363.33118	-339.72504	-37.61629	1170.49048	-358.30344	283.96875	1166.53540	-482.68298	107.05917	1003.44299	-753.08716	2.35277	987.80249	-747.98413	246.15395	1008.56085	-917.43365	103.92366	1102.29419	-827.14435	-64.01785	865.96161	-738.73712	7.40225	809.67389	-820.00684	-55.13461	751.24933	-803.75323	-28.60146	613.18994	-785.94080	81.57135	570.39630	-800.09613	-27.31976	565.70563	-742.69269	23.74628	528.34058	-822.49323	-44.49051	479.13568	-760.57324	-24.06206	206.97270	-646.01953	-65.81385	163.36028	-604.31116	-71.33209	157.60104	-548.61932	-21.23536	161.93478	-600.74298	30.76271	165.11182	-727.58319	66.88240	219.11397	-675.32690	51.99533	161.33670	-794.25378	33.55823	174.44127	-851.30994	297.95419	866.88037	-743.75336	229.76953	791.95587	-831.92358	289.12823	730.74872	-838.92883	263.01920	628.53040	-792.89563	151.91682	572.61395	-825.36047	256.95584	565.37408	-764.37317	213.21143	538.42340	-846.46100	269.28442	486.25122	-771.91766	232.76178	203.35638	-658.92041	297.69910	157.64903	-622.53821	305.12021	158.56631	-557.67645	253.16211	163.16122	-594.22247	217.20294	172.94316	-721.84766	158.99771	224.57901	-677.26514	175.49985	163.83087	-799.06134	184.33630	183.28799	-528.04303	304.20139	146.48468	-517.77557	-72.91411	143.34616	-875.87146	-78.60383	141.20741	-882.59277	296.14014	144.77821	
